<?xml version="1.0" encoding="UTF-8" standalone="no"?>
<svg
   xmlns:dc="http://purl.org/dc/elements/1.1/"
   xmlns:cc="http://creativecommons.org/ns#"
   xmlns:rdf="http://www.w3.org/1999/02/22-rdf-syntax-ns#"
   xmlns:svg="http://www.w3.org/2000/svg"
   xmlns="http://www.w3.org/2000/svg"
   xmlns:sodipodi="http://sodipodi.sourceforge.net/DTD/sodipodi-0.dtd"
   xmlns:inkscape="http://www.inkscape.org/namespaces/inkscape"
   id="svg3927"
   version="1.1"
   viewBox="0 0 22.754168 12.700001"
   height="48"
   width="86"
   sodipodi:docname="cale-es.svg"
   inkscape:version="0.92.3 (2405546, 2018-03-11)">
  <sodipodi:namedview
     pagecolor="#ffffff"
     bordercolor="#666666"
     borderopacity="1"
     objecttolerance="10"
     gridtolerance="10"
     guidetolerance="10"
     inkscape:pageopacity="0"
     inkscape:pageshadow="2"
     inkscape:window-width="1323"
     inkscape:window-height="640"
     id="namedview143"
     showgrid="false"
     inkscape:zoom="6.84"
     inkscape:cx="53.189586"
     inkscape:cy="15.818812"
     inkscape:window-x="0"
     inkscape:window-y="27"
     inkscape:window-maximized="0"
     inkscape:current-layer="svg3927" />
  <defs
     id="defs3921" />
  <metadata
     id="metadata3924">
    <rdf:RDF>
      <cc:Work
         rdf:about="">
        <dc:format>image/svg+xml</dc:format>
        <dc:type
           rdf:resource="http://purl.org/dc/dcmitype/StillImage" />
        <dc:title></dc:title>
      </cc:Work>
    </rdf:RDF>
  </metadata>
  <path
     inkscape:connector-curvature="0"
     style="font-style:normal;font-weight:normal;font-size:17.04019928px;line-height:1.25;font-family:sans-serif;letter-spacing:0px;word-spacing:0px;fill:#1a1a1a;fill-opacity:1;stroke:#ffffff;stroke-width:0.03542416;stroke-miterlimit:4;stroke-dasharray:none;stroke-opacity:1"
     d="M 3.6656096,9.6210074 C 2.7741596,9.66362 1.7619038,9.297736 1.5131541,8.4994211 1.2333795,7.6031725 1.1969215,6.5039941 1.9208858,5.7498247 2.6733817,5.0845818 3.9477104,5.0662408 4.889088,5.4204949 5.354997,5.7200134 4.6829964,6.1375279 4.3447665,5.7606987 3.5274821,5.5104824 2.3573605,5.7306745 2.123847,6.5448 1.9266557,7.2579682 1.8823371,8.1078744 2.3986943,8.7324355 3.0422814,9.3227493 4.1648756,9.227754 4.910807,8.8380705 5.644345,9.3678282 4.3374394,9.6145198 3.8542896,9.6167349 l -0.093548,0.00322 z M 5.802285,9.5961274 C 5.259212,9.6419284 5.64222,9.172266 5.705955,8.9436877 6.229494,7.7236421 6.716626,6.4876794 7.262855,5.2775603 7.552942,5.1777913 8.072166,5.1545319 8.100286,5.5181589 8.6482269,6.8431899 9.2254666,8.1608285 9.7550603,9.4904979 9.4769983,9.7514396 8.9828656,9.5523629 8.9723256,9.2010198 8.8712619,8.9598994 8.7701969,8.7187756 8.6691319,8.4776517 c -0.7094729,0 -1.4189449,0 -2.1284179,0 C 6.388767,8.8302592 6.268365,9.1958273 6.096389,9.540205 6.015259,9.599004 5.90163,9.594778 5.802283,9.59613 Z M 8.4736659,8.0054051 C 8.20702,7.3063477 7.864299,6.6257093 7.651076,5.9136946 7.584704,5.6854784 7.452755,6.4045734 7.327827,6.5818122 7.133025,7.0563408 6.938224,7.530873 6.743422,8.0054051 c 0.576748,0 1.153497,0 1.7302439,0 z M 10.76339,9.5837047 c -0.370603,-0.052689 -0.162536,-0.477187 -0.217185,-0.7101552 0,-1.1717335 0,-2.3434705 0,-3.5152147 0.246646,-0.3324707 0.811005,-0.060301 0.637078,0.3142431 0,1.1462945 0,2.2925855 0,3.4388765 0.685562,0.00713 1.374244,-0.014338 2.05783,0.010895 0.259081,0.2942303 -0.06034,0.5644486 -0.433081,0.4613728 -0.681547,0 -1.363095,0 -2.044642,0 z m 3.372484,0 c -0.370603,-0.052689 -0.162537,-0.477187 -0.217186,-0.7101552 0.0083,-1.1792786 -0.01676,-2.3603778 0.01268,-3.5385137 0.202179,-0.1902422 0.575465,-0.064424 0.855393,-0.1009716 0.647148,0.00738 1.297516,-0.014693 1.942682,0.01086 0.259077,0.294227 -0.06034,0.5644452 -0.433081,0.4613727 -0.580196,0 -1.160392,0 -1.740584,0 0,0.472243 0,0.9444897 0,1.4167398 0.651758,0.00728 1.3067,-0.01455 1.956479,0.010895 0.259077,0.2942305 -0.06034,0.5644487 -0.433081,0.4613726 -0.507802,0 -1.0156,0 -1.523398,0 0,0.5053868 0,1.0107737 0,1.5161605 0.726583,0.00713 1.456293,-0.014338 2.180904,0.010895 0.259078,0.2942303 -0.06034,0.5644485 -0.433081,0.4613728 -0.722572,0 -1.445144,0 -2.167716,0 z"
     id="text1086-7-0-5-1" />
  <text
     xml:space="preserve"
     style="font-style:normal;font-variant:normal;font-weight:normal;font-stretch:normal;font-size:3.52777791px;line-height:1.25;font-family:Asap;-inkscape-font-specification:Asap;font-variant-ligatures:normal;font-variant-caps:normal;font-variant-numeric:normal;font-feature-settings:normal;text-align:start;letter-spacing:0px;word-spacing:0px;writing-mode:lr-tb;text-anchor:start;fill:#000000;fill-opacity:1;stroke:none;stroke-width:0.26458335"
     x="17.227316"
     y="9.5667772"
     id="text1108"><tspan
       sodipodi:role="line"
       id="tspan1106"
       x="17.227316"
       y="9.5667772"
       style="stroke-width:0.26458335">.es</tspan></text>
</svg>
